<svg width="263" height="168" viewBox="0 0 263 168" fill="none" xmlns="http://www.w3.org/2000/svg">
<path d="M245.5 139.5L130.5 164.5L17.5 139.5L3 82.5L17.5 28.5L130.5 3L245.5 28.5L260 82.5L245.5 139.5Z" stroke="#FE741B" stroke-width="5"/>
<path d="M77.7983 49.096C77.9689 49.352 78.1289 49.7467 78.2783 50.28C78.4276 50.8133 78.5236 51.3253 78.5663 51.816L75.0463 53.512C74.4063 53.3627 73.7449 53.1387 73.0623 52.84C72.4009 52.52 71.7929 52.168 71.2383 51.784C70.6836 51.4 70.2463 51.0373 69.9263 50.696L66.8223 42.952L64.3263 45.128L64.3583 53L62.5023 53.448C61.9476 53.1707 61.3823 52.7973 60.8063 52.328C60.2303 51.8373 59.7609 51.2507 59.3983 50.568L60.9663 42.248L60.5823 30.6L61.5103 29.96C61.7449 30.0027 62.0649 30.12 62.4703 30.312C62.8969 30.504 63.3129 30.7173 63.7183 30.952C64.1236 31.1867 64.4223 31.4107 64.6143 31.624L64.3583 41.704L73.9263 30.6H75.2383C75.9849 31.688 76.4649 32.904 76.6783 34.248L69.7023 40.392C70.3636 42.0347 71.1209 43.72 71.9743 45.448C72.8489 47.1547 73.7556 48.6373 74.6943 49.896L77.7983 49.096ZM92.0285 43.528L96.6365 52.168L95.0685 53.512C94.4712 53.4053 93.7992 53.1707 93.0525 52.808C92.3058 52.4453 91.6552 51.9867 91.1005 51.432L89.0525 43.944L84.3485 44.104V52.008L81.8845 53.512C80.9885 53.192 80.2952 52.712 79.8045 52.072L81.0525 42.248L80.6685 30.6L81.5965 29.96C81.8952 30.0027 82.3218 30.1627 82.8765 30.44C83.4525 30.7173 83.9325 31.0053 84.3165 31.304C85.1912 30.8773 86.1085 30.5573 87.0685 30.344C88.0498 30.1307 88.9885 30.0027 89.8845 29.96C90.8018 29.9173 91.6018 29.9707 92.2845 30.12C92.8605 30.44 93.4045 30.8453 93.9165 31.336C94.4285 31.8267 94.8765 32.328 95.2605 32.84C95.6658 33.3307 95.9645 33.7573 96.1565 34.12L95.7405 40.52L92.0285 43.528ZM91.9005 33.672C91.2392 33.5653 90.4818 33.5333 89.6285 33.576C88.7752 33.5973 87.9112 33.6933 87.0365 33.864C86.1832 34.0347 85.3725 34.2907 84.6045 34.632L84.4125 41.16L91.8685 39.56C91.9965 38.4933 92.0605 37.448 92.0605 36.424C92.0818 35.3787 92.0285 34.4613 91.9005 33.672ZM108.802 34.952C109.037 35.6987 109.496 36.392 110.178 37.032C110.861 37.672 111.661 38.312 112.578 38.952C113.517 39.5707 114.477 40.2427 115.458 40.968C116.461 41.6933 117.4 42.5253 118.274 43.464C119.17 44.4027 119.896 45.5013 120.45 46.76C120.322 47.592 120.013 48.4347 119.522 49.288C119.032 50.12 118.445 50.8773 117.762 51.56C117.08 52.2427 116.376 52.776 115.65 53.16C114.882 53.288 113.997 53.3733 112.994 53.416C111.992 53.48 110.946 53.4587 109.858 53.352C108.792 53.2453 107.757 53.032 106.754 52.712C106.456 52.4773 106.104 52.1253 105.698 51.656C105.293 51.1867 104.941 50.7493 104.642 50.344L105.154 45.416C105.56 45.288 106.029 45.2027 106.562 45.16C107.117 45.1173 107.608 45.16 108.034 45.288L108.322 49.448C109.176 49.576 110.104 49.6187 111.106 49.576C112.13 49.5333 113.133 49.416 114.114 49.224C115.117 49.0107 115.981 48.712 116.706 48.328C116.28 47.4747 115.672 46.696 114.882 45.992C114.093 45.2667 113.218 44.5733 112.258 43.912C111.32 43.2293 110.381 42.536 109.442 41.832C108.504 41.128 107.65 40.3813 106.882 39.592C106.136 38.8027 105.57 37.9173 105.186 36.936C105.336 36.104 105.592 35.2827 105.954 34.472C106.338 33.64 106.776 32.8933 107.266 32.232C107.778 31.5493 108.28 31.0373 108.77 30.696C111.864 29.8213 115.01 29.704 118.21 30.344C118.424 30.472 118.637 30.696 118.85 31.016C119.064 31.3147 119.266 31.6347 119.458 31.976C119.672 32.3173 119.842 32.584 119.97 32.776L119.49 37.128C119.085 37.2773 118.626 37.352 118.114 37.352C117.624 37.352 117.133 37.2987 116.642 37.192L116.354 33.736C115.629 33.672 114.818 33.672 113.922 33.736C113.026 33.7787 112.13 33.896 111.234 34.088C110.338 34.28 109.528 34.568 108.802 34.952ZM140.036 34.408L132.836 33.704L132.548 42.664L132.644 53.064L130.852 53.512C130.297 53.2347 129.732 52.8613 129.156 52.392C128.58 51.9013 128.11 51.3147 127.748 50.632L129.252 42.248L128.996 33.864L123.94 34.632C123.406 34.2907 122.948 33.9387 122.564 33.576C122.18 33.2133 121.774 32.7547 121.348 32.2L121.956 30.344L131.172 30.6L138.052 30.088C138.734 30.5573 139.278 30.9947 139.684 31.4C140.089 31.784 140.43 32.1787 140.708 32.584L140.036 34.408ZM155.051 29.96C155.286 30.0027 155.606 30.12 156.011 30.312C156.416 30.504 156.811 30.7173 157.195 30.952C157.6 31.1867 157.899 31.4107 158.091 31.624L157.515 49.288C157.131 49.928 156.587 50.6 155.883 51.304C155.2 52.008 154.56 52.5733 153.963 53H147.371C147.03 52.9573 146.592 52.808 146.059 52.552C145.526 52.2747 144.971 51.944 144.395 51.56C143.819 51.1547 143.296 50.728 142.827 50.28C142.379 49.832 142.059 49.416 141.867 49.032L142.763 42.248L142.379 30.6L143.307 29.96C143.542 30.0027 143.862 30.1307 144.267 30.344C144.694 30.5573 145.11 30.8347 145.515 31.176C145.92 31.496 146.219 31.8693 146.411 32.296L146.123 42.664C146.102 43.9653 146.112 45.2347 146.155 46.472C146.198 47.688 146.315 48.7333 146.507 49.608L153.579 48.264L154.507 42.248L154.123 30.6L155.051 29.96ZM173.419 30.12C173.995 30.44 174.528 30.8453 175.019 31.336C175.531 31.8267 175.979 32.3173 176.363 32.808C176.747 33.2987 177.035 33.7253 177.227 34.088L176.683 49.544C176.491 49.928 176.16 50.344 175.691 50.792C175.243 51.24 174.731 51.6667 174.155 52.072C173.579 52.456 173.024 52.776 172.491 53.032C171.957 53.3093 171.52 53.4693 171.179 53.512L164.235 52.552L162.635 53.512C161.739 53.192 161.045 52.712 160.555 52.072L161.803 42.248L161.419 30.6L162.347 29.96C162.56 30.0027 162.848 30.1093 163.211 30.28C163.595 30.4293 163.968 30.6107 164.331 30.824C164.715 31.0373 165.024 31.24 165.259 31.432C166.133 30.984 167.072 30.6427 168.075 30.408C169.077 30.1733 170.048 30.0347 170.987 29.992C171.925 29.928 172.736 29.9707 173.419 30.12ZM165.099 49.736L172.459 48.872C172.693 47.8267 172.885 46.632 173.035 45.288C173.205 43.944 173.312 42.568 173.355 41.16C173.419 39.752 173.408 38.3973 173.323 37.096C173.237 35.7947 173.077 34.6747 172.843 33.736C172.053 33.6293 171.2 33.6187 170.283 33.704C169.387 33.768 168.501 33.9067 167.627 34.12C166.773 34.312 166.016 34.568 165.355 34.888L165.099 42.664V49.736ZM184.39 53.064L182.534 53.512C181.979 53.2347 181.414 52.8613 180.838 52.392C180.262 51.9013 179.792 51.3147 179.43 50.632L180.998 42.248L180.614 30.6L181.542 29.96C181.776 30.0027 182.096 30.12 182.502 30.312C182.928 30.504 183.344 30.7173 183.75 30.952C184.155 31.1867 184.454 31.4107 184.646 31.624L184.358 42.664L184.39 53.064ZM199.857 30.408C200.262 30.7067 200.689 31.08 201.137 31.528C201.606 31.976 202.043 32.4347 202.449 32.904C202.854 33.3733 203.163 33.8213 203.377 34.248L202.833 48.968C202.534 49.3947 202.15 49.864 201.681 50.376C201.211 50.888 200.71 51.3787 200.177 51.848C199.643 52.296 199.131 52.68 198.641 53H192.689C192.347 52.9573 191.899 52.7867 191.345 52.488C190.79 52.1893 190.214 51.8267 189.617 51.4C189.019 50.952 188.497 50.4933 188.049 50.024C187.601 49.5333 187.313 49.096 187.185 48.712L188.049 34.408C188.262 34.0453 188.561 33.6187 188.945 33.128C189.35 32.616 189.787 32.1253 190.257 31.656C190.726 31.1653 191.153 30.76 191.537 30.44C193.094 30.1413 194.555 29.992 195.921 29.992C197.307 29.9707 198.619 30.1093 199.857 30.408ZM191.569 49.704L198.801 48.52C199.014 47.5387 199.185 46.4293 199.313 45.192C199.462 43.9547 199.547 42.6747 199.569 41.352C199.611 40.008 199.59 38.7173 199.505 37.48C199.441 36.2213 199.302 35.1013 199.089 34.12C198.043 33.8853 196.902 33.7787 195.665 33.8C194.449 33.8213 193.318 33.992 192.273 34.312C191.953 35.3573 191.697 36.5733 191.505 37.96C191.313 39.3467 191.174 40.776 191.089 42.248C191.025 43.6987 191.035 45.0853 191.121 46.408C191.206 47.7093 191.355 48.808 191.569 49.704Z" fill="url(#paint0_linear_1758_17)"/>
<path d="M113.17 114.785C111.954 103.873 131.122 74.9997 131.122 74.9997C131.122 74.9997 128.959 88.2736 135.095 94.1148C140.84 99.6409 145.901 105.134 146.558 111.21C147.575 120.607 142.943 129.007 135.746 131.858C137.244 121.581 128.684 104.565 128.684 104.565C132.793 119.096 133.866 130.667 132.882 145.356L129.187 145.352C129.187 145.352 130.003 136.589 129.559 132.813C121.352 132.271 114.248 124.748 113.17 114.785Z" fill="#FE741B"/>
<path d="M136.879 101.043L137.29 100.76C137.944 100.31 138.807 100.344 139.382 100.869C140.267 101.678 141.417 102.84 141.951 103.843C142.344 104.579 142.685 105.599 142.932 106.454C143.165 107.262 142.742 108.104 141.961 108.452L141.059 108.853C140.189 109.239 139.168 108.882 138.73 108.037L136.301 103.354C135.883 102.548 136.131 101.557 136.879 101.043Z" stroke="white" stroke-opacity="0.4" stroke-width="0.4"/>
<defs>
<linearGradient id="paint0_linear_1758_17" x1="131.5" y1="22" x2="131.5" y2="58" gradientUnits="userSpaceOnUse">
<stop/>
<stop offset="1" stop-color="#434343"/>
</linearGradient>
</defs>
</svg>
