<?xml version="1.0" standalone="no"?>
<!DOCTYPE svg PUBLIC "-//W3C//DTD SVG 20010904//EN"
 "http://www.w3.org/TR/2001/REC-SVG-20010904/DTD/svg10.dtd">
<svg version="1.0" xmlns="http://www.w3.org/2000/svg"
 width="400.000000pt" height="400.000000pt" viewBox="0 0 400.000000 400.000000"
 preserveAspectRatio="xMidYMid meet">

<g transform="translate(0.000000,400.000000) scale(0.100000,-0.100000)"
fill="#000000" stroke="none">
<path d="M0 2000 l0 -2000 2000 0 2000 0 0 2000 0 2000 -2000 0 -2000 0 0
-2000z m2293 966 c201 -60 412 -200 511 -340 66 -92 97 -206 63 -234 -15 -13
-55 17 -157 116 -127 124 -296 217 -468 259 -97 23 -275 21 -373 -5 -264 -70
-439 -259 -439 -474 0 -262 177 -444 430 -441 131 1 240 49 319 139 l33 37 26
-20 c55 -41 67 -68 67 -156 0 -73 -4 -90 -32 -148 -55 -111 -167 -196 -303
-230 -74 -18 -220 -16 -300 4 -36 9 -108 38 -159 63 -128 63 -249 180 -309
299 -71 143 -87 210 -87 370 0 127 3 147 28 220 86 247 287 435 560 525 121
39 201 50 357 46 120 -3 160 -8 233 -30z m51 -406 c247 -63 417 -222 502 -472
154 -454 -140 -909 -661 -1020 -137 -29 -331 -27 -456 5 -207 54 -445 210
-547 358 -72 105 -97 239 -45 239 9 0 66 -49 127 -108 118 -114 219 -184 338
-234 480 -202 1023 83 959 504 -31 199 -159 331 -349 360 -145 23 -318 -38
-422 -148 l-53 -56 -26 20 c-47 35 -64 77 -63 156 0 83 14 121 76 202 70 93
169 160 291 195 85 25 231 24 329 -1z"/>
</g>
</svg>
